<svg xmlns="http://www.w3.org/2000/svg" xmlns:xlink="http://www.w3.org/1999/xlink" version="1.1" x="0px" y="0px" viewBox="0 0 100 100" enable-background="new 0 0 100 100" xml:space="preserve"><g><g><path d="M77.659,32.531c0.24-5.633-2.069-11.194-6.331-15.098c-4.82-4.418-11.677-6.232-18.34-4.855    c-6.04,1.249-11.107,4.949-13.881,10.049c-3.097-1.279-6.637-0.959-9.615,0.957c-3.025,1.945-4.695,5.026-4.61,8.321    c-3.67,0.612-7.045,2.54-9.454,5.451c-2.681,3.236-3.804,7.337-3.08,11.251c0.753,4.08,3.187,7.695,6.676,9.922    c1.997,1.271,4.014,1.658,5.966,2.032c1.086,0.208,2.111,0.405,3.11,0.751c3.44,1.188,6.209,2.413,8.233,4.016    c-1.332,0.188-2.591,0.408-3.753,0.657c-2.57,0.55-9.401,2.012-9.401,6.679s6.831,6.128,9.401,6.679    c1.522,0.325,3.218,0.597,5.021,0.822c-0.094,0.108-0.18,0.225-0.28,0.331c-2.311,2.493-5.628,4.003-9.103,4.141l0.141,3.275    c4.391-0.174,8.584-2.081,11.505-5.233c0.62-0.669,1.159-1.383,1.631-2.126c2.569,0.198,5.289,0.308,8.084,0.308    c2.902,0,5.725-0.117,8.378-0.33c2.41,3.91,6.77,7.141,12.843,7.382l0.14-3.275c-4.072-0.162-7.156-2.043-9.146-4.502    c1.715-0.22,3.33-0.481,4.785-0.792c2.571-0.551,9.402-2.012,9.402-6.679s-6.831-6.129-9.402-6.679    c-1.252-0.269-2.62-0.499-4.066-0.698c0.683-0.627,1.477-1.211,2.412-1.73c2.25-1.253,4.78-1.774,7.459-2.329    c1.499-0.31,3.05-0.63,4.567-1.092c6.449-1.958,10.953-7.594,10.953-13.702C87.903,40.227,83.672,34.59,77.659,32.531z     M26.586,72.664c0-1.895,5.01-3.537,12.347-4.359c0.691,1.231,1.119,2.649,1.246,4.337c0.116,1.524-0.133,3.029-0.694,4.441    C31.846,76.284,26.586,74.605,26.586,72.664z M72.573,72.664c0,1.916-5.126,3.574-12.603,4.387    c-0.195-0.482-0.361-0.969-0.485-1.452c-0.562-2.204-0.489-4.857,0.728-7.295C67.558,69.124,72.573,70.768,72.573,72.664z     M75.926,57.01c-1.365,0.413-2.771,0.705-4.259,1.012c-2.818,0.583-5.733,1.186-8.448,2.697c-1.981,1.101-3.595,2.505-4.816,4.112    c-0.742,0.979-1.337,2.036-1.776,3.151c-1.011,2.568-1.203,5.444-0.447,8.399c0.082,0.324,0.181,0.65,0.288,0.976    c-2.174,0.146-4.486,0.225-6.888,0.225c-2.295,0-4.51-0.073-6.602-0.206c0.509-1.6,0.728-3.274,0.601-4.973    c-0.128-1.667-0.49-3.129-1.034-4.423c-0.498-1.181-1.154-2.216-1.924-3.139c-2.811-3.364-7.188-5.171-11.37-6.616    c-1.236-0.427-2.436-0.657-3.596-0.88c-1.777-0.341-3.312-0.634-4.75-1.552c-2.716-1.729-4.612-4.56-5.203-7.762    c-0.561-3.028,0.29-6.095,2.39-8.632c2.19-2.646,5.383-4.253,8.757-4.412l1.992-0.095l-0.407-1.878    c-0.676-3.11,1.081-5.502,2.952-6.705c1.861-1.197,4.82-1.841,7.542-0.054l1.741,1.144l0.795-1.881    c2.092-4.942,6.667-8.583,12.24-9.737c5.562-1.151,11.272,0.356,15.277,4.024c3.839,3.519,5.776,8.649,5.185,13.729l-0.166,1.426    l1.446,0.348c5.244,1.256,9.052,5.934,9.052,11.124C84.497,51.128,80.972,55.476,75.926,57.01z"></path></g></g></svg>